<svg xmlns="http://www.w3.org/2000/svg" viewBox="0 0 30 30"><g fill="#333" data-name="Layer 1"><path d="M7 26v-.68a4.47 4.47 0 0 1 .08-.82h13.1l-2-2H8.06a4.29 4.29 0 0 1 3.26-1.5h5.36l-2-2h-3.36A6.33 6.33 0 0 0 5 25.32V27a1 1 0 0 0 1 1h17.68l-2-2z"/><circle cx="17.75" cy="8.75" r=".75"/><path d="M27.71 26.29l-3.09-3.09a6.34 6.34 0 0 0-3.82-3.82l-3-3a7 7 0 0 0 3.66-9A1 1 0 0 0 22 6.5v-1a1 1 0 0 0-.79-1L10.09 2.08a1.86 1.86 0 0 0-1.67.3 2.33 2.33 0 0 0-.92 1.91v.92a2.46 2.46 0 0 0 .29 1.16L3.71 2.29a1.06 1.06 0 0 0-.31-.21 1 1 0 0 0-1.11 1.63l24 24a1 1 0 0 0 1.42 0 1 1 0 0 0 0-1.42zM19.33 7.5A5 5 0 0 1 20 10a4.28 4.28 0 0 1-.07.81L10.34 8.2a3.77 3.77 0 0 1 .34-.7z"/></g></svg>