<svg xmlns="http://www.w3.org/2000/svg" viewBox="0 0 30 30"><path fill="none" d="M0 0h30v30H0z"/><g fill="#333" data-name="Layer 1"><path d="M12 14H2V2h12v10a2 2 0 0 1-2 2zm-8-2h8V4H4zM14 28H2V16h10a2 2 0 0 1 2 2zM4 26h8v-8H4zM28 14H18a2 2 0 0 1-2-2V2h12zM18 4v8h8V4z"/><path d="M6 20h4v4H6zM6 6h4v4H6zM20 6h4v4h-4zM24 25h-4v-2a1 1 0 0 1 2 0h2a1 1 0 0 1 0 2zM24 21h-1a1 1 0 0 1 0-2h1a1 1 0 0 1 0 2zM17 26a1 1 0 0 1-1-1v-6h3a1 1 0 0 1 0 2h-1v4a1 1 0 0 1-1 1zM27 28h-7a1 1 0 0 1 0-2h7a1 1 0 0 1 0 2zM27 24a1 1 0 0 1-1-1v-1a1 1 0 0 1 2 0v1a1 1 0 0 1-1 1zM27 19a1 1 0 0 1-1-1h-4a1 1 0 0 1 0-2h6v2a1 1 0 0 1-1 1zM18 18h-1a1 1 0 0 1 0-2h1a1 1 0 0 1 0 2z"/></g></svg>